<?xml version="1.0" encoding="UTF-8" standalone="no"?>
<!DOCTYPE svg PUBLIC "-//W3C//DTD SVG 1.1//EN" "http://www.w3.org/Graphics/SVG/1.1/DTD/svg11.dtd">
<svg xmlns:xl="http://www.w3.org/1999/xlink" xmlns="http://www.w3.org/2000/svg" xmlns:dc="http://purl.org/dc/elements/1.1/" version="1.1" viewBox="56 128 409 337" width="409" height="337">
  <defs>
    <marker orient="auto" overflow="visible" markerUnits="strokeWidth" id="FilledArrow_Marker" stroke-linejoin="miter" stroke-miterlimit="10" viewBox="-1 -4 10 8" markerWidth="10" markerHeight="8" color="black">
      <g>
        <path d="M 8 0 L 0 -3 L 0 3 Z" fill="currentColor" stroke="currentColor" stroke-width="1"/>
      </g>
    </marker>
  </defs>
  <g id="Canvas_1" stroke-dasharray="none" stroke="none" stroke-opacity="1" fill="none" fill-opacity="1">
    <title>Canvas 1</title>
    <rect fill="white" x="56" y="128" width="409" height="337"/>
    <g id="Canvas_1_Layer_1">
      <title>Layer 1</title>
      <g id="Graphic_2">
        <path d="M 162.75 128.5 L 234.25 128.5 C 237.5637 128.5 240.25 131.18629 240.25 134.5 L 240.25 160.5 C 240.25 163.8137 237.5637 166.5 234.25 166.5 L 162.75 166.5 C 159.4363 166.5 156.75 163.8137 156.75 160.5 L 156.75 134.5 C 156.75 131.18629 159.4363 128.5 162.75 128.5 Z" fill="#ffc0c0"/>
        <path d="M 162.75 128.5 L 234.25 128.5 C 237.5637 128.5 240.25 131.18629 240.25 134.5 L 240.25 160.5 C 240.25 163.8137 237.5637 166.5 234.25 166.5 L 162.75 166.5 C 159.4363 166.5 156.75 163.8137 156.75 160.5 L 156.75 134.5 C 156.75 131.18629 159.4363 128.5 162.75 128.5 Z" stroke="black" stroke-linecap="round" stroke-linejoin="round" stroke-width="1"/>
        <text transform="translate(161.75 138.276)" fill="black">
          <tspan font-family="Helvetica Neue" font-size="16" fill="black" x="21.494" y="15" xml:space="preserve">VCF</tspan>
        </text>
      </g>
      <g id="Graphic_3">
        <path d="M 63 224 L 111.5 224 C 114.81371 224 117.5 226.6863 117.5 230 L 117.5 235.5 C 117.5 238.8137 114.81371 241.5 111.5 241.5 L 63 241.5 C 59.68629 241.5 57 238.8137 57 235.5 L 57 230 C 57 226.6863 59.68629 224 63 224 Z" fill="#ffc0c0"/>
        <path d="M 63 224 L 111.5 224 C 114.81371 224 117.5 226.6863 117.5 230 L 117.5 235.5 C 117.5 238.8137 114.81371 241.5 111.5 241.5 L 63 241.5 C 59.68629 241.5 57 238.8137 57 235.5 L 57 230 C 57 226.6863 59.68629 224 63 224 Z" stroke="black" stroke-linecap="round" stroke-linejoin="round" stroke-width="1"/>
        <text transform="translate(62 226.596)" fill="black">
          <tspan font-family="Helvetica Neue" font-size="11" fill="black" x="14.7615" y="10" xml:space="preserve">VCF</tspan>
        </text>
      </g>
      <g id="Line_8">
        <line x1="173.70528" y1="166.5" x2="106.52675" y2="217.97838" marker-end="url(#FilledArrow_Marker)" stroke="black" stroke-linecap="round" stroke-linejoin="round" stroke-width="1"/>
      </g>
      <g id="Graphic_15">
        <path d="M 89.5 299 L 111.5 299 C 114.81371 299 117.5 301.6863 117.5 305 L 117.5 315 C 117.5 318.3137 114.81371 321 111.5 321 L 89.5 321 C 86.18629 321 83.5 318.3137 83.5 315 L 83.5 305 C 83.5 301.6863 86.18629 299 89.5 299 Z" fill="#c0c0ff"/>
        <path d="M 89.5 299 L 111.5 299 C 114.81371 299 117.5 301.6863 117.5 305 L 117.5 315 C 117.5 318.3137 114.81371 321 111.5 321 L 89.5 321 C 86.18629 321 83.5 318.3137 83.5 315 L 83.5 305 C 83.5 301.6863 86.18629 299 89.5 299 Z" stroke="black" stroke-linecap="round" stroke-linejoin="round" stroke-width="1"/>
        <text transform="translate(88.5 304.888)" fill="black">
          <tspan font-family="Helvetica Neue" font-size="8" fill="black" x="1.404" y="8" xml:space="preserve">JSON</tspan>
        </text>
      </g>
      <g id="Graphic_16">
        <path d="M 165.5 299 L 187.5 299 C 190.8137 299 193.5 301.6863 193.5 305 L 193.5 315 C 193.5 318.3137 190.8137 321 187.5 321 L 165.5 321 C 162.1863 321 159.5 318.3137 159.5 315 L 159.5 305 C 159.5 301.6863 162.1863 299 165.5 299 Z" fill="#c0c0ff"/>
        <path d="M 165.5 299 L 187.5 299 C 190.8137 299 193.5 301.6863 193.5 305 L 193.5 315 C 193.5 318.3137 190.8137 321 187.5 321 L 165.5 321 C 162.1863 321 159.5 318.3137 159.5 315 L 159.5 305 C 159.5 301.6863 162.1863 299 165.5 299 Z" stroke="black" stroke-linecap="round" stroke-linejoin="round" stroke-width="1"/>
        <text transform="translate(164.5 304.888)" fill="black">
          <tspan font-family="Helvetica Neue" font-size="8" fill="black" x="1.404" y="8" xml:space="preserve">JSON</tspan>
        </text>
      </g>
      <g id="Graphic_17">
        <path d="M 240.5 299 L 262.5 299 C 265.8137 299 268.5 301.6863 268.5 305 L 268.5 315 C 268.5 318.3137 265.8137 321 262.5 321 L 240.5 321 C 237.1863 321 234.5 318.3137 234.5 315 L 234.5 305 C 234.5 301.6863 237.1863 299 240.5 299 Z" fill="#c0c0ff"/>
        <path d="M 240.5 299 L 262.5 299 C 265.8137 299 268.5 301.6863 268.5 305 L 268.5 315 C 268.5 318.3137 265.8137 321 262.5 321 L 240.5 321 C 237.1863 321 234.5 318.3137 234.5 315 L 234.5 305 C 234.5 301.6863 237.1863 299 240.5 299 Z" stroke="black" stroke-linecap="round" stroke-linejoin="round" stroke-width="1"/>
        <text transform="translate(239.5 304.888)" fill="black">
          <tspan font-family="Helvetica Neue" font-size="8" fill="black" x="1.404" y="8" xml:space="preserve">JSON</tspan>
        </text>
      </g>
      <g id="Graphic_18">
        <path d="M 315.5 299 L 337.5 299 C 340.8137 299 343.5 301.6863 343.5 305 L 343.5 315 C 343.5 318.3137 340.8137 321 337.5 321 L 315.5 321 C 312.1863 321 309.5 318.3137 309.5 315 L 309.5 305 C 309.5 301.6863 312.1863 299 315.5 299 Z" fill="#c0c0ff"/>
        <path d="M 315.5 299 L 337.5 299 C 340.8137 299 343.5 301.6863 343.5 305 L 343.5 315 C 343.5 318.3137 340.8137 321 337.5 321 L 315.5 321 C 312.1863 321 309.5 318.3137 309.5 315 L 309.5 305 C 309.5 301.6863 312.1863 299 315.5 299 Z" stroke="black" stroke-linecap="round" stroke-linejoin="round" stroke-width="1"/>
        <text transform="translate(314.5 304.888)" fill="black">
          <tspan font-family="Helvetica Neue" font-size="8" fill="black" x="1.404" y="8" xml:space="preserve">JSON</tspan>
        </text>
      </g>
      <g id="Graphic_20">
        <path d="M 138.5 224 L 187 224 C 190.3137 224 193 226.6863 193 230 L 193 235.5 C 193 238.8137 190.3137 241.5 187 241.5 L 138.5 241.5 C 135.18629 241.5 132.5 238.8137 132.5 235.5 L 132.5 230 C 132.5 226.6863 135.18629 224 138.5 224 Z" fill="#ffc0c0"/>
        <path d="M 138.5 224 L 187 224 C 190.3137 224 193 226.6863 193 230 L 193 235.5 C 193 238.8137 190.3137 241.5 187 241.5 L 138.5 241.5 C 135.18629 241.5 132.5 238.8137 132.5 235.5 L 132.5 230 C 132.5 226.6863 135.18629 224 138.5 224 Z" stroke="black" stroke-linecap="round" stroke-linejoin="round" stroke-width="1"/>
        <text transform="translate(137.5 226.596)" fill="black">
          <tspan font-family="Helvetica Neue" font-size="11" fill="black" x="14.7615" y="10" xml:space="preserve">VCF</tspan>
        </text>
      </g>
      <g id="Graphic_21">
        <path d="M 214 224 L 262.5 224 C 265.8137 224 268.5 226.6863 268.5 230 L 268.5 235.5 C 268.5 238.8137 265.8137 241.5 262.5 241.5 L 214 241.5 C 210.6863 241.5 208 238.8137 208 235.5 L 208 230 C 208 226.6863 210.6863 224 214 224 Z" fill="#ffc0c0"/>
        <path d="M 214 224 L 262.5 224 C 265.8137 224 268.5 226.6863 268.5 230 L 268.5 235.5 C 268.5 238.8137 265.8137 241.5 262.5 241.5 L 214 241.5 C 210.6863 241.5 208 238.8137 208 235.5 L 208 230 C 208 226.6863 210.6863 224 214 224 Z" stroke="black" stroke-linecap="round" stroke-linejoin="round" stroke-width="1"/>
        <text transform="translate(213 226.596)" fill="black">
          <tspan font-family="Helvetica Neue" font-size="11" fill="black" x="14.7615" y="10" xml:space="preserve">VCF</tspan>
        </text>
      </g>
      <g id="Graphic_22">
        <path d="M 289 224 L 337.5 224 C 340.8137 224 343.5 226.6863 343.5 230 L 343.5 235.5 C 343.5 238.8137 340.8137 241.5 337.5 241.5 L 289 241.5 C 285.6863 241.5 283 238.8137 283 235.5 L 283 230 C 283 226.6863 285.6863 224 289 224 Z" fill="#ffc0c0"/>
        <path d="M 289 224 L 337.5 224 C 340.8137 224 343.5 226.6863 343.5 230 L 343.5 235.5 C 343.5 238.8137 340.8137 241.5 337.5 241.5 L 289 241.5 C 285.6863 241.5 283 238.8137 283 235.5 L 283 230 C 283 226.6863 285.6863 224 289 224 Z" stroke="black" stroke-linecap="round" stroke-linejoin="round" stroke-width="1"/>
        <text transform="translate(288 226.596)" fill="black">
          <tspan font-family="Helvetica Neue" font-size="11" fill="black" x="14.7615" y="10" xml:space="preserve">VCF</tspan>
        </text>
      </g>
      <g id="Line_23">
        <line x1="190.53226" y1="166.5" x2="170.24795" y2="214.87028" marker-end="url(#FilledArrow_Marker)" stroke="black" stroke-linecap="round" stroke-linejoin="round" stroke-width="1"/>
      </g>
      <g id="Line_24">
        <line x1="207.35924" y1="166.5" x2="229.9864" y2="215.02744" marker-end="url(#FilledArrow_Marker)" stroke="black" stroke-linecap="round" stroke-linejoin="round" stroke-width="1"/>
      </g>
      <g id="Line_25">
        <line x1="224.07478" y1="166.5" x2="293.5252" y2="218.09607" marker-end="url(#FilledArrow_Marker)" stroke="black" stroke-linecap="round" stroke-linejoin="round" stroke-width="1"/>
      </g>
      <g id="Line_26">
        <line x1="102" y1="241.5" x2="100.95761" y2="289.10237" marker-end="url(#FilledArrow_Marker)" stroke="black" stroke-linecap="round" stroke-linejoin="round" stroke-width="1"/>
      </g>
      <g id="Line_27">
        <line x1="176" y1="241.5" x2="176.34745" y2="289.10026" marker-end="url(#FilledArrow_Marker)" stroke="black" stroke-linecap="round" stroke-linejoin="round" stroke-width="1"/>
      </g>
      <g id="Line_28">
        <line x1="252" y1="241.5" x2="251.65255" y2="289.10026" marker-end="url(#FilledArrow_Marker)" stroke="black" stroke-linecap="round" stroke-linejoin="round" stroke-width="1"/>
      </g>
      <g id="Line_29">
        <line x1="326.5" y1="241.5" x2="326.5" y2="289.1" marker-end="url(#FilledArrow_Marker)" stroke="black" stroke-linecap="round" stroke-linejoin="round" stroke-width="1"/>
      </g>
      <g id="Graphic_30">
        <path d="M 63 378.5 L 111.5 378.5 C 114.81371 378.5 117.5 381.1863 117.5 384.5 L 117.5 390 C 117.5 393.3137 114.81371 396 111.5 396 L 63 396 C 59.68629 396 57 393.3137 57 390 L 57 384.5 C 57 381.1863 59.68629 378.5 63 378.5 Z" fill="#c0ffff"/>
        <path d="M 63 378.5 L 111.5 378.5 C 114.81371 378.5 117.5 381.1863 117.5 384.5 L 117.5 390 C 117.5 393.3137 114.81371 396 111.5 396 L 63 396 C 59.68629 396 57 393.3137 57 390 L 57 384.5 C 57 381.1863 59.68629 378.5 63 378.5 Z" stroke="black" stroke-linecap="round" stroke-linejoin="round" stroke-width="1"/>
        <text transform="translate(62 381.11)" fill="black">
          <tspan font-family="Helvetica Neue" font-size="10" fill="black" x="15.345" y="10" xml:space="preserve">CSV</tspan>
        </text>
      </g>
      <g id="Line_31">
        <line x1="75.5" y1="241.5" x2="72.25284" y2="368.60323" marker-end="url(#FilledArrow_Marker)" stroke="black" stroke-linecap="round" stroke-linejoin="round" stroke-width="1"/>
      </g>
      <g id="Line_32">
        <line x1="101.25" y1="321" x2="98.35675" y2="368.1186" marker-end="url(#FilledArrow_Marker)" stroke="black" stroke-linecap="round" stroke-linejoin="round" stroke-width="1"/>
      </g>
      <g id="Graphic_33">
        <path d="M 138.5 378.5 L 187 378.5 C 190.3137 378.5 193 381.1863 193 384.5 L 193 390 C 193 393.3137 190.3137 396 187 396 L 138.5 396 C 135.18629 396 132.5 393.3137 132.5 390 L 132.5 384.5 C 132.5 381.1863 135.18629 378.5 138.5 378.5 Z" fill="#c0ffff"/>
        <path d="M 138.5 378.5 L 187 378.5 C 190.3137 378.5 193 381.1863 193 384.5 L 193 390 C 193 393.3137 190.3137 396 187 396 L 138.5 396 C 135.18629 396 132.5 393.3137 132.5 390 L 132.5 384.5 C 132.5 381.1863 135.18629 378.5 138.5 378.5 Z" stroke="black" stroke-linecap="round" stroke-linejoin="round" stroke-width="1"/>
        <text transform="translate(137.5 381.11)" fill="black">
          <tspan font-family="Helvetica Neue" font-size="10" fill="black" x="15.345" y="10" xml:space="preserve">CSV</tspan>
        </text>
      </g>
      <g id="Line_34">
        <line x1="151" y1="241.5" x2="147.75284" y2="368.60323" marker-end="url(#FilledArrow_Marker)" stroke="black" stroke-linecap="round" stroke-linejoin="round" stroke-width="1"/>
      </g>
      <g id="Line_35">
        <line x1="178.25" y1="321.5" x2="175.35675" y2="368.6186" marker-end="url(#FilledArrow_Marker)" stroke="black" stroke-linecap="round" stroke-linejoin="round" stroke-width="1"/>
      </g>
      <g id="Graphic_38">
        <path d="M 214 378.5 L 262.5 378.5 C 265.8137 378.5 268.5 381.1863 268.5 384.5 L 268.5 390 C 268.5 393.3137 265.8137 396 262.5 396 L 214 396 C 210.6863 396 208 393.3137 208 390 L 208 384.5 C 208 381.1863 210.6863 378.5 214 378.5 Z" fill="#c0ffff"/>
        <path d="M 214 378.5 L 262.5 378.5 C 265.8137 378.5 268.5 381.1863 268.5 384.5 L 268.5 390 C 268.5 393.3137 265.8137 396 262.5 396 L 214 396 C 210.6863 396 208 393.3137 208 390 L 208 384.5 C 208 381.1863 210.6863 378.5 214 378.5 Z" stroke="black" stroke-linecap="round" stroke-linejoin="round" stroke-width="1"/>
        <text transform="translate(213 381.11)" fill="black">
          <tspan font-family="Helvetica Neue" font-size="10" fill="black" x="15.345" y="10" xml:space="preserve">CSV</tspan>
        </text>
      </g>
      <g id="Line_37">
        <line x1="226.5" y1="241.5" x2="223.25284" y2="368.60323" marker-end="url(#FilledArrow_Marker)" stroke="black" stroke-linecap="round" stroke-linejoin="round" stroke-width="1"/>
      </g>
      <g id="Line_36">
        <line x1="253.75" y1="321.5" x2="250.85675" y2="368.6186" marker-end="url(#FilledArrow_Marker)" stroke="black" stroke-linecap="round" stroke-linejoin="round" stroke-width="1"/>
      </g>
      <g id="Graphic_41">
        <path d="M 289.5 378.5 L 338 378.5 C 341.3137 378.5 344 381.1863 344 384.5 L 344 390 C 344 393.3137 341.3137 396 338 396 L 289.5 396 C 286.1863 396 283.5 393.3137 283.5 390 L 283.5 384.5 C 283.5 381.1863 286.1863 378.5 289.5 378.5 Z" fill="#c0ffff"/>
        <path d="M 289.5 378.5 L 338 378.5 C 341.3137 378.5 344 381.1863 344 384.5 L 344 390 C 344 393.3137 341.3137 396 338 396 L 289.5 396 C 286.1863 396 283.5 393.3137 283.5 390 L 283.5 384.5 C 283.5 381.1863 286.1863 378.5 289.5 378.5 Z" stroke="black" stroke-linecap="round" stroke-linejoin="round" stroke-width="1"/>
        <text transform="translate(288.5 381.11)" fill="black">
          <tspan font-family="Helvetica Neue" font-size="10" fill="black" x="15.345" y="10" xml:space="preserve">CSV</tspan>
        </text>
      </g>
      <g id="Line_40">
        <line x1="301.5" y1="241.5" x2="298.25284" y2="368.60323" marker-end="url(#FilledArrow_Marker)" stroke="black" stroke-linecap="round" stroke-linejoin="round" stroke-width="1"/>
      </g>
      <g id="Line_39">
        <line x1="328.75" y1="321.5" x2="325.85675" y2="368.6186" marker-end="url(#FilledArrow_Marker)" stroke="black" stroke-linecap="round" stroke-linejoin="round" stroke-width="1"/>
      </g>
      <g id="Graphic_42">
        <path d="M 174.25 446.5 L 222.75 446.5 C 226.0637 446.5 228.75 449.1863 228.75 452.5 L 228.75 458 C 228.75 461.3137 226.0637 464 222.75 464 L 174.25 464 C 170.9363 464 168.25 461.3137 168.25 458 L 168.25 452.5 C 168.25 449.1863 170.9363 446.5 174.25 446.5 Z" fill="#c0ffff"/>
        <path d="M 174.25 446.5 L 222.75 446.5 C 226.0637 446.5 228.75 449.1863 228.75 452.5 L 228.75 458 C 228.75 461.3137 226.0637 464 222.75 464 L 174.25 464 C 170.9363 464 168.25 461.3137 168.25 458 L 168.25 452.5 C 168.25 449.1863 170.9363 446.5 174.25 446.5 Z" stroke="black" stroke-linecap="round" stroke-linejoin="round" stroke-width="1"/>
        <text transform="translate(173.25 449.11)" fill="black">
          <tspan font-family="Helvetica Neue" font-size="10" fill="black" x="15.345" y="10" xml:space="preserve">CSV</tspan>
        </text>
      </g>
      <g id="Line_43">
        <line x1="101.56526" y1="396" x2="175.73772" y2="441.3369" marker-end="url(#FilledArrow_Marker)" stroke="black" stroke-linecap="round" stroke-linejoin="round" stroke-width="1"/>
      </g>
      <g id="Line_44">
        <line x1="167.35018" y1="396" x2="189.2929" y2="437.7372" marker-end="url(#FilledArrow_Marker)" stroke="black" stroke-linecap="round" stroke-linejoin="round" stroke-width="1"/>
      </g>
      <g id="Line_45">
        <line x1="233.1351" y1="396" x2="208.61103" y2="437.95315" marker-end="url(#FilledArrow_Marker)" stroke="black" stroke-linecap="round" stroke-linejoin="round" stroke-width="1"/>
      </g>
      <g id="Line_46">
        <line x1="298.92004" y1="396" x2="221.85645" y2="441.4692" marker-end="url(#FilledArrow_Marker)" stroke="black" stroke-linecap="round" stroke-linejoin="round" stroke-width="1"/>
      </g>
      <g id="Graphic_48">
        <text transform="translate(379.676 177.5)" fill="black">
          <tspan font-family="Helvetica Neue" font-weight="bold" font-size="16" fill="black" x="0" y="16" xml:space="preserve">Split VCF</tspan>
        </text>
      </g>
      <g id="Graphic_50">
        <text transform="translate(379.676 258.63397)" fill="black">
          <tspan font-family="Helvetica Neue" font-weight="bold" font-size="16" fill="black" x="0" y="16" xml:space="preserve">VEP</tspan>
        </text>
      </g>
      <g id="Graphic_51">
        <text transform="translate(379.676 335.067)" fill="black">
          <tspan font-family="Helvetica Neue" font-weight="bold" font-size="16" fill="black" x="14210855e-21" y="16" xml:space="preserve">Varona</tspan>
        </text>
      </g>
      <g id="Graphic_52">
        <text transform="translate(379.676 411.5)" fill="black">
          <tspan font-family="Helvetica Neue" font-weight="bold" font-size="16" fill="black" x="0" y="16" xml:space="preserve">Aggregate</tspan>
        </text>
      </g>
    </g>
  </g>
</svg>
